<?xml version="1.0" encoding="UTF-8" standalone="no"?>
<!DOCTYPE svg PUBLIC "-//W3C//DTD SVG 1.1//EN" "http://www.w3.org/Graphics/SVG/1.1/DTD/svg11.dtd">
<svg width="100%" height="100%" viewBox="0 0 16 16" version="1.1" xmlns="http://www.w3.org/2000/svg" xmlns:xlink="http://www.w3.org/1999/xlink" xml:space="preserve" xmlns:serif="http://www.serif.com/" style="fill-rule:evenodd;clip-rule:evenodd;stroke-linejoin:round;stroke-miterlimit:2;">
    <g>
        <path d="M11,0L5,0C2.257,0 -0,2.257 0,5L0,11C0,13.743 2.257,16 5,16L11,16C13.743,16 16,13.743 16,11L16,5C16,2.257 13.743,0 11,0ZM14.5,11C14.5,12.93 12.93,14.5 11,14.5L5,14.5C3.07,14.5 1.5,12.93 1.5,11L1.5,5C1.5,3.07 3.07,1.5 5,1.5L11,1.5C12.93,1.5 14.5,3.07 14.5,5L14.5,11Z" style="fill-rule:nonzero;"/>
        <path d="M13.229,5.42L13.229,10.548C13.229,11.546 12.419,12.356 11.421,12.356L4.578,12.356C3.58,12.356 2.769,11.546 2.769,10.548L2.769,5.42C2.769,4.422 3.58,3.612 4.578,3.612L11.421,3.612C12.419,3.612 13.229,4.422 13.229,5.42ZM4.768,5.22L8,7.496L11.236,5.22L4.768,5.22ZM7.444,9.006L4.338,6.833L4.34,10.62C4.34,10.62 4.311,10.777 4.497,10.777L11.501,10.777C11.501,10.777 11.662,10.791 11.662,10.616L11.662,6.837L8.56,9.006C8.56,9.006 8.035,9.491 7.444,9.006Z"/>
    </g>
</svg>
