<?xml version="1.0" encoding="UTF-8" standalone="no"?>
<!DOCTYPE svg PUBLIC "-//W3C//DTD SVG 1.1//EN" "http://www.w3.org/Graphics/SVG/1.1/DTD/svg11.dtd">
<svg width="100%" height="100%" viewBox="0 0 16 16" version="1.1" xmlns="http://www.w3.org/2000/svg" xmlns:xlink="http://www.w3.org/1999/xlink" xml:space="preserve" xmlns:serif="http://www.serif.com/" style="fill-rule:evenodd;clip-rule:evenodd;stroke-linejoin:round;stroke-miterlimit:2;">
    <path d="M11,0L5,0C2.257,0 -0,2.257 0,5L0,11C0,13.743 2.257,16 5,16L11,16C13.743,16 16,13.743 16,11L16,5C16,2.257 13.743,0 11,0ZM14.5,11C14.5,12.93 12.93,14.5 11,14.5L5,14.5C3.07,14.5 1.5,12.93 1.5,11L1.5,5C1.5,3.07 3.07,1.5 5,1.5L11,1.5C12.93,1.5 14.5,3.07 14.5,5L14.5,11Z" style="fill-rule:nonzero;"/>
    <g transform="matrix(0.490168,0,0,0.490168,8,8)">
        <g transform="matrix(1,0,0,1,-12,-12)">
            <path d="M15.12,5.32L17,5.32L17,2.14C16.09,2.045 15.175,1.999 14.26,2C11.54,2 9.68,3.66 9.68,6.7L9.68,9.32L6.61,9.32L6.61,12.88L9.68,12.88L9.68,22L13.36,22L13.36,12.88L16.42,12.88L16.88,9.32L13.36,9.32L13.36,7.05C13.36,6 13.64,5.32 15.12,5.32Z" style="fill-rule:nonzero;"/>
        </g>
    </g>
</svg>
