<?xml version="1.0" encoding="UTF-8" standalone="no"?>
<!DOCTYPE svg PUBLIC "-//W3C//DTD SVG 1.1//EN" "http://www.w3.org/Graphics/SVG/1.1/DTD/svg11.dtd">
<svg width="100%" height="100%" viewBox="0 0 16 16" version="1.1" xmlns="http://www.w3.org/2000/svg" xmlns:xlink="http://www.w3.org/1999/xlink" xml:space="preserve" xmlns:serif="http://www.serif.com/" style="fill-rule:evenodd;clip-rule:evenodd;stroke-linejoin:round;stroke-miterlimit:2;">
    <path d="M11,0L5,0C2.257,0 -0,2.257 0,5L0,11C0,13.743 2.257,16 5,16L11,16C13.743,16 16,13.743 16,11L16,5C16,2.257 13.743,0 11,0ZM14.5,11C14.5,12.93 12.93,14.5 11,14.5L5,14.5C3.07,14.5 1.5,12.93 1.5,11L1.5,5C1.5,3.07 3.07,1.5 5,1.5L11,1.5C12.93,1.5 14.5,3.07 14.5,5L14.5,11Z" style="fill-rule:nonzero;"/>
    <g transform="matrix(0.524917,0,0,0.524917,-1.17293,-1.18604)">
        <path d="M12.17,16.535C12.17,15.588 11.402,14.82 10.455,14.82C9.508,14.82 8.74,15.588 8.74,16.535L8.74,24.065C8.74,25.012 9.508,25.78 10.455,25.78C11.402,25.78 12.17,25.012 12.17,24.065L12.17,16.535Z"/>
    </g>
    <g transform="matrix(0.524917,0,0,0.524917,-1.17293,-1.18604)">
        <path d="M10.46,9.22C10.457,9.22 10.453,9.22 10.45,9.22C9.506,9.22 8.73,9.996 8.73,10.94C8.73,11.884 9.506,12.66 10.45,12.66C11.394,12.66 12.17,11.884 12.17,10.94C12.17,10.937 12.17,10.933 12.17,10.93C12.165,9.994 11.396,9.225 10.46,9.22ZM20,17.16C20.676,16.97 21.404,17.119 21.95,17.56C22.585,18.304 22.888,19.277 22.79,20.25L22.79,24.07C22.795,25.01 23.57,25.78 24.51,25.78C25.448,25.78 26.22,25.008 26.22,24.07L26.22,19.07C26.214,18.013 25.924,16.977 25.38,16.07L25.33,16.01C24.559,15.04 23.379,14.482 22.14,14.5C20.763,14.401 19.436,15.052 18.67,16.2L18.21,16.87L18.21,16.47C18.21,15.532 17.438,14.76 16.5,14.76C15.562,14.76 14.79,15.532 14.79,16.47L14.79,24.01C14.79,24.948 15.562,25.72 16.5,25.72C16.503,25.72 16.507,25.72 16.51,25.72C17.443,25.72 18.21,24.953 18.21,24.02C18.21,24.017 18.21,24.013 18.21,24.01L18.21,19C18.88,17.3 20,17.17 20,17.16Z" style="fill-rule:nonzero;"/>
    </g>
</svg>
